<svg xmlns="http://www.w3.org/2000/svg" xmlns:xlink="http://www.w3.org/1999/xlink" id="Calque_1" x="0" y="0" enable-background="new 0 0 24 16" version="1.1" viewBox="0 0 24 16" xml:space="preserve"><style type="text/css">.st0{fill:none}.st1{fill:#75757f}</style><rect width="24" height="16" class="st0"/><path d="M16,0c-4.3,0-8,3.7-8,8s3.7,8,8,8s8-3.7,8-8S20.3,0,16,0z M22.9,8c0,1.7-0.6,3.2-1.6,4.4l-9.7-9.7	c1.2-1,2.8-1.6,4.4-1.6C19.7,1.1,22.9,4.3,22.9,8z M9.1,8c0-1.7,0.6-3.3,1.7-4.5l9.7,9.7c-1.2,1-2.8,1.7-4.5,1.7	C12.3,14.9,9.1,11.8,9.1,8z" class="st1"/></svg>